<svg width="3012" height="2111" viewBox="0 0 3012 2111" fill="none" xmlns="http://www.w3.org/2000/svg">
<g opacity="0.2" filter="url(#filter0_f_301_3036)">
<ellipse cx="1505.89" cy="1055.19" rx="942.891" ry="492.188" fill="#338AF3"/>
</g>
<path d="M831.643 1387.06C833.746 1387.06 835.337 1387.95 836.418 1389.72C837.519 1391.48 838.069 1394.03 838.069 1397.38C838.069 1400.73 837.519 1403.29 836.418 1405.07C835.337 1406.84 833.746 1407.72 831.643 1407.72C829.56 1407.72 827.968 1406.84 826.867 1405.07C825.767 1403.29 825.217 1400.73 825.217 1397.38C825.217 1394.05 825.767 1391.49 826.867 1389.72C827.968 1387.95 829.56 1387.06 831.643 1387.06ZM827.31 1397.38C827.31 1399.76 827.526 1401.62 827.958 1402.96L834.502 1390.01C833.814 1389.1 832.861 1388.64 831.643 1388.64C830.287 1388.64 829.226 1389.36 828.459 1390.8C827.693 1392.23 827.31 1394.42 827.31 1397.38ZM831.643 1406.12C833.018 1406.12 834.09 1405.41 834.856 1403.98C835.622 1402.54 836.006 1400.34 836.006 1397.38C836.006 1394.87 835.76 1392.92 835.269 1391.53L828.724 1404.6C829.432 1405.61 830.405 1406.12 831.643 1406.12Z" fill="url(#paint0_linear_301_3036)" fill-opacity="0.6"/>
<path d="M833.412 1439.28H837.745V1440.83H826.514V1439.28H831.525V1422.86L826.749 1425.69L825.924 1424.38L831.82 1420.75H833.412V1439.28Z" fill="url(#paint1_linear_301_3036)" fill-opacity="0.6"/>
<path d="M831.643 1453.86C833.746 1453.86 835.337 1454.75 836.418 1456.52C837.519 1458.28 838.069 1460.83 838.069 1464.18C838.069 1467.53 837.519 1470.09 836.418 1471.86C835.337 1473.64 833.746 1474.52 831.643 1474.52C829.56 1474.52 827.968 1473.64 826.867 1471.86C825.767 1470.09 825.217 1467.53 825.217 1464.18C825.217 1460.85 825.767 1458.29 826.867 1456.52C827.968 1454.75 829.56 1453.86 831.643 1453.86ZM827.31 1464.18C827.31 1466.56 827.526 1468.42 827.958 1469.76L834.502 1456.81C833.814 1455.9 832.861 1455.44 831.643 1455.44C830.287 1455.44 829.226 1456.16 828.459 1457.6C827.693 1459.03 827.31 1461.22 827.31 1464.18ZM831.643 1472.92C833.018 1472.92 834.09 1472.21 834.856 1470.78C835.622 1469.34 836.006 1467.14 836.006 1464.18C836.006 1461.67 835.76 1459.72 835.269 1458.33L828.724 1471.4C829.432 1472.41 830.405 1472.92 831.643 1472.92Z" fill="url(#paint2_linear_301_3036)" fill-opacity="0.6"/>
<path d="M833.412 1506.08H837.745V1507.63H826.514V1506.08H831.525V1489.66L826.749 1492.49L825.924 1491.18L831.82 1487.55H833.412V1506.08Z" fill="url(#paint3_linear_301_3036)" fill-opacity="0.6"/>
<path d="M833.412 1539.48H837.745V1541.03H826.514V1539.48H831.525V1523.06L826.749 1525.89L825.924 1524.58L831.82 1520.95H833.412V1539.48Z" fill="url(#paint4_linear_301_3036)" fill-opacity="0.6"/>
<path d="M831.643 1554.06C833.746 1554.06 835.337 1554.95 836.418 1556.72C837.519 1558.48 838.069 1561.03 838.069 1564.38C838.069 1567.73 837.519 1570.29 836.418 1572.06C835.337 1573.84 833.746 1574.72 831.643 1574.72C829.56 1574.72 827.968 1573.84 826.867 1572.06C825.767 1570.29 825.217 1567.73 825.217 1564.38C825.217 1561.05 825.767 1558.49 826.867 1556.72C827.968 1554.95 829.56 1554.06 831.643 1554.06ZM827.31 1564.38C827.31 1566.76 827.526 1568.62 827.958 1569.96L834.502 1557.01C833.814 1556.1 832.861 1555.64 831.643 1555.64C830.287 1555.64 829.226 1556.36 828.459 1557.8C827.693 1559.23 827.31 1561.42 827.31 1564.38ZM831.643 1573.12C833.018 1573.12 834.09 1572.41 834.856 1570.98C835.622 1569.54 836.006 1567.34 836.006 1564.38C836.006 1561.87 835.76 1559.92 835.269 1558.53L828.724 1571.6C829.432 1572.61 830.405 1573.12 831.643 1573.12Z" fill="url(#paint5_linear_301_3036)" fill-opacity="0.6"/>
<path d="M833.412 1606.28H837.745V1607.83H826.514V1606.28H831.525V1589.86L826.749 1592.69L825.924 1591.38L831.82 1587.75H833.412V1606.28Z" fill="url(#paint6_linear_301_3036)" fill-opacity="0.6"/>
<path d="M831.643 1620.86C833.746 1620.86 835.337 1621.75 836.418 1623.52C837.519 1625.27 838.069 1627.83 838.069 1631.18C838.069 1634.53 837.519 1637.09 836.418 1638.86C835.337 1640.64 833.746 1641.52 831.643 1641.52C829.56 1641.52 827.968 1640.64 826.867 1638.86C825.767 1637.09 825.217 1634.53 825.217 1631.18C825.217 1627.85 825.767 1625.29 826.867 1623.52C827.968 1621.75 829.56 1620.86 831.643 1620.86ZM827.31 1631.18C827.31 1633.56 827.526 1635.42 827.958 1636.76L834.502 1623.81C833.814 1622.9 832.861 1622.44 831.643 1622.44C830.287 1622.44 829.226 1623.16 828.459 1624.6C827.693 1626.03 827.31 1628.22 827.31 1631.18ZM831.643 1639.92C833.018 1639.92 834.09 1639.21 834.856 1637.78C835.622 1636.34 836.006 1634.14 836.006 1631.18C836.006 1628.67 835.76 1626.72 835.269 1625.33L828.724 1638.4C829.432 1639.41 830.405 1639.92 831.643 1639.92Z" fill="url(#paint7_linear_301_3036)" fill-opacity="0.6"/>
<path d="M831.643 1654.26C833.746 1654.26 835.337 1655.15 836.418 1656.92C837.519 1658.67 838.069 1661.23 838.069 1664.58C838.069 1667.93 837.519 1670.49 836.418 1672.26C835.337 1674.04 833.746 1674.92 831.643 1674.92C829.56 1674.92 827.968 1674.04 826.867 1672.26C825.767 1670.49 825.217 1667.93 825.217 1664.58C825.217 1661.25 825.767 1658.69 826.867 1656.92C827.968 1655.15 829.56 1654.26 831.643 1654.26ZM827.31 1664.58C827.31 1666.96 827.526 1668.82 827.958 1670.16L834.502 1657.21C833.814 1656.3 832.861 1655.84 831.643 1655.84C830.287 1655.84 829.226 1656.56 828.459 1658C827.693 1659.43 827.31 1661.62 827.31 1664.58ZM831.643 1673.32C833.018 1673.32 834.09 1672.61 834.856 1671.18C835.622 1669.74 836.006 1667.54 836.006 1664.58C836.006 1662.06 835.76 1660.12 835.269 1658.73L828.724 1671.8C829.432 1672.81 830.405 1673.32 831.643 1673.32Z" fill="url(#paint8_linear_301_3036)" fill-opacity="0.6"/>
<path d="M833.412 1706.48H837.745V1708.03H826.514V1706.48H831.525V1690.06L826.749 1692.89L825.924 1691.58L831.82 1687.95H833.412V1706.48Z" fill="url(#paint9_linear_301_3036)" fill-opacity="0.6"/>
<path d="M831.643 1721.06C833.746 1721.06 835.337 1721.95 836.418 1723.72C837.519 1725.47 838.069 1728.03 838.069 1731.38C838.069 1734.73 837.519 1737.29 836.418 1739.06C835.337 1740.84 833.746 1741.72 831.643 1741.72C829.56 1741.72 827.968 1740.84 826.867 1739.06C825.767 1737.29 825.217 1734.73 825.217 1731.38C825.217 1728.05 825.767 1725.49 826.867 1723.72C827.968 1721.95 829.56 1721.06 831.643 1721.06ZM827.31 1731.38C827.31 1733.76 827.526 1735.62 827.958 1736.96L834.502 1724.01C833.814 1723.1 832.861 1722.64 831.643 1722.64C830.287 1722.64 829.226 1723.36 828.459 1724.8C827.693 1726.22 827.31 1728.42 827.31 1731.38ZM831.643 1740.12C833.018 1740.12 834.09 1739.41 834.856 1737.98C835.622 1736.54 836.006 1734.34 836.006 1731.38C836.006 1728.86 835.76 1726.92 835.269 1725.53L828.724 1738.6C829.432 1739.61 830.405 1740.12 831.643 1740.12Z" fill="url(#paint10_linear_301_3036)" fill-opacity="0.6"/>
<path d="M833.412 1773.28H837.745V1774.83H826.514V1773.28H831.525V1756.86L826.749 1759.69L825.924 1758.38L831.82 1754.75H833.412V1773.28Z" fill="url(#paint11_linear_301_3036)" fill-opacity="0.6"/>
<path d="M833.412 1806.68H837.745V1808.23H826.514V1806.68H831.525V1790.26L826.749 1793.09L825.924 1791.78L831.82 1788.15H833.412V1806.68Z" fill="url(#paint12_linear_301_3036)" fill-opacity="0.6"/>
<path d="M886.388 1453.86C888.491 1453.86 890.083 1454.75 891.164 1456.52C892.264 1458.28 892.815 1460.83 892.815 1464.18C892.815 1467.53 892.264 1470.09 891.164 1471.86C890.083 1473.64 888.491 1474.52 886.388 1474.52C884.305 1474.52 882.713 1473.64 881.613 1471.86C880.512 1470.09 879.962 1467.53 879.962 1464.18C879.962 1460.85 880.512 1458.29 881.613 1456.52C882.713 1454.75 884.305 1453.86 886.388 1453.86ZM882.055 1464.18C882.055 1466.56 882.271 1468.42 882.704 1469.76L889.248 1456.81C888.56 1455.9 887.607 1455.44 886.388 1455.44C885.032 1455.44 883.971 1456.16 883.205 1457.6C882.438 1459.03 882.055 1461.22 882.055 1464.18ZM886.388 1472.92C887.764 1472.92 888.835 1472.21 889.602 1470.78C890.368 1469.34 890.751 1467.14 890.751 1464.18C890.751 1461.67 890.506 1459.72 890.014 1458.33L883.47 1471.4C884.178 1472.41 885.15 1472.92 886.388 1472.92Z" fill="url(#paint13_linear_301_3036)" fill-opacity="0.6"/>
<path d="M888.157 1506.08H892.49V1507.63H881.259V1506.08H886.27V1489.66L881.495 1492.49L880.67 1491.18L886.565 1487.55H888.157V1506.08Z" fill="url(#paint14_linear_301_3036)" fill-opacity="0.6"/>
<path d="M886.388 1520.66C888.491 1520.66 890.083 1521.55 891.164 1523.32C892.264 1525.08 892.815 1527.63 892.815 1530.98C892.815 1534.33 892.264 1536.89 891.164 1538.66C890.083 1540.44 888.491 1541.32 886.388 1541.32C884.305 1541.32 882.713 1540.44 881.613 1538.66C880.512 1536.89 879.962 1534.33 879.962 1530.98C879.962 1527.65 880.512 1525.09 881.613 1523.32C882.713 1521.55 884.305 1520.66 886.388 1520.66ZM882.055 1530.98C882.055 1533.36 882.271 1535.22 882.704 1536.56L889.248 1523.61C888.56 1522.7 887.607 1522.24 886.388 1522.24C885.032 1522.24 883.971 1522.96 883.205 1524.4C882.438 1525.83 882.055 1528.02 882.055 1530.98ZM886.388 1539.72C887.764 1539.72 888.835 1539.01 889.602 1537.58C890.368 1536.14 890.751 1533.94 890.751 1530.98C890.751 1528.47 890.506 1526.52 890.014 1525.13L883.47 1538.2C884.178 1539.21 885.15 1539.72 886.388 1539.72Z" fill="url(#paint15_linear_301_3036)" fill-opacity="0.6"/>
<path d="M886.388 1554.06C888.491 1554.06 890.083 1554.95 891.164 1556.72C892.264 1558.48 892.815 1561.03 892.815 1564.38C892.815 1567.73 892.264 1570.29 891.164 1572.06C890.083 1573.84 888.491 1574.72 886.388 1574.72C884.305 1574.72 882.713 1573.84 881.613 1572.06C880.512 1570.29 879.962 1567.73 879.962 1564.38C879.962 1561.05 880.512 1558.49 881.613 1556.72C882.713 1554.95 884.305 1554.06 886.388 1554.06ZM882.055 1564.38C882.055 1566.76 882.271 1568.62 882.704 1569.96L889.248 1557.01C888.56 1556.1 887.607 1555.64 886.388 1555.64C885.032 1555.64 883.971 1556.36 883.205 1557.8C882.438 1559.23 882.055 1561.42 882.055 1564.38ZM886.388 1573.12C887.764 1573.12 888.835 1572.41 889.602 1570.98C890.368 1569.54 890.751 1567.34 890.751 1564.38C890.751 1561.87 890.506 1559.92 890.014 1558.53L883.47 1571.6C884.178 1572.61 885.15 1573.12 886.388 1573.12Z" fill="url(#paint16_linear_301_3036)" fill-opacity="0.6"/>
<path d="M888.157 1606.28H892.49V1607.83H881.259V1606.28H886.27V1589.86L881.495 1592.69L880.67 1591.38L886.565 1587.75H888.157V1606.28Z" fill="url(#paint17_linear_301_3036)" fill-opacity="0.6"/>
<path d="M886.388 1620.86C888.491 1620.86 890.083 1621.75 891.164 1623.52C892.264 1625.27 892.815 1627.83 892.815 1631.18C892.815 1634.53 892.264 1637.09 891.164 1638.86C890.083 1640.64 888.491 1641.52 886.388 1641.52C884.305 1641.52 882.713 1640.64 881.613 1638.86C880.512 1637.09 879.962 1634.53 879.962 1631.18C879.962 1627.85 880.512 1625.29 881.613 1623.52C882.713 1621.75 884.305 1620.86 886.388 1620.86ZM882.055 1631.18C882.055 1633.56 882.271 1635.42 882.704 1636.76L889.248 1623.81C888.56 1622.9 887.607 1622.44 886.388 1622.44C885.032 1622.44 883.971 1623.16 883.205 1624.6C882.438 1626.03 882.055 1628.22 882.055 1631.18ZM886.388 1639.92C887.764 1639.92 888.835 1639.21 889.602 1637.78C890.368 1636.34 890.751 1634.14 890.751 1631.18C890.751 1628.67 890.506 1626.72 890.014 1625.33L883.47 1638.4C884.178 1639.41 885.15 1639.92 886.388 1639.92Z" fill="url(#paint18_linear_301_3036)" fill-opacity="0.6"/>
<path d="M888.157 1673.08H892.49V1674.63H881.259V1673.08H886.27V1656.66L881.495 1659.49L880.67 1658.18L886.565 1654.55H888.157V1673.08Z" fill="url(#paint19_linear_301_3036)" fill-opacity="0.6"/>
<path d="M886.388 1687.66C888.491 1687.66 890.083 1688.55 891.164 1690.32C892.264 1692.07 892.815 1694.63 892.815 1697.98C892.815 1701.33 892.264 1703.89 891.164 1705.66C890.083 1707.44 888.491 1708.32 886.388 1708.32C884.305 1708.32 882.713 1707.44 881.613 1705.66C880.512 1703.89 879.962 1701.33 879.962 1697.98C879.962 1694.65 880.512 1692.09 881.613 1690.32C882.713 1688.55 884.305 1687.66 886.388 1687.66ZM882.055 1697.98C882.055 1700.36 882.271 1702.22 882.704 1703.56L889.248 1690.61C888.56 1689.7 887.607 1689.24 886.388 1689.24C885.032 1689.24 883.971 1689.96 883.205 1691.4C882.438 1692.82 882.055 1695.02 882.055 1697.98ZM886.388 1706.72C887.764 1706.72 888.835 1706.01 889.602 1704.58C890.368 1703.14 890.751 1700.94 890.751 1697.98C890.751 1695.46 890.506 1693.52 890.014 1692.13L883.47 1705.2C884.178 1706.21 885.15 1706.72 886.388 1706.72Z" fill="url(#paint20_linear_301_3036)" fill-opacity="0.6"/>
<path d="M886.388 1721.06C888.491 1721.06 890.083 1721.95 891.164 1723.72C892.264 1725.47 892.815 1728.03 892.815 1731.38C892.815 1734.73 892.264 1737.29 891.164 1739.06C890.083 1740.84 888.491 1741.72 886.388 1741.72C884.305 1741.72 882.713 1740.84 881.613 1739.06C880.512 1737.29 879.962 1734.73 879.962 1731.38C879.962 1728.05 880.512 1725.49 881.613 1723.72C882.713 1721.95 884.305 1721.06 886.388 1721.06ZM882.055 1731.38C882.055 1733.76 882.271 1735.62 882.704 1736.96L889.248 1724.01C888.56 1723.1 887.607 1722.64 886.388 1722.64C885.032 1722.64 883.971 1723.36 883.205 1724.8C882.438 1726.22 882.055 1728.42 882.055 1731.38ZM886.388 1740.12C887.764 1740.12 888.835 1739.41 889.602 1737.98C890.368 1736.54 890.751 1734.34 890.751 1731.38C890.751 1728.86 890.506 1726.92 890.014 1725.53L883.47 1738.6C884.178 1739.61 885.15 1740.12 886.388 1740.12Z" fill="url(#paint21_linear_301_3036)" fill-opacity="0.6"/>
<path d="M888.157 1773.28H892.49V1774.83H881.259V1773.28H886.27V1756.86L881.495 1759.69L880.67 1758.38L886.565 1754.75H888.157V1773.28Z" fill="url(#paint22_linear_301_3036)" fill-opacity="0.6"/>
<path d="M886.388 1787.86C888.491 1787.86 890.083 1788.75 891.164 1790.52C892.264 1792.27 892.815 1794.83 892.815 1798.18C892.815 1801.53 892.264 1804.09 891.164 1805.86C890.083 1807.64 888.491 1808.52 886.388 1808.52C884.305 1808.52 882.713 1807.64 881.613 1805.86C880.512 1804.09 879.962 1801.53 879.962 1798.18C879.962 1794.85 880.512 1792.29 881.613 1790.52C882.713 1788.75 884.305 1787.86 886.388 1787.86ZM882.055 1798.18C882.055 1800.55 882.271 1802.42 882.704 1803.76L889.248 1790.81C888.56 1789.9 887.607 1789.44 886.388 1789.44C885.032 1789.44 883.971 1790.16 883.205 1791.6C882.438 1793.02 882.055 1795.22 882.055 1798.18ZM886.388 1806.92C887.764 1806.92 888.835 1806.21 889.602 1804.78C890.368 1803.34 890.751 1801.14 890.751 1798.18C890.751 1795.66 890.506 1793.72 890.014 1792.33L883.47 1805.4C884.178 1806.41 885.15 1806.92 886.388 1806.92Z" fill="url(#paint23_linear_301_3036)" fill-opacity="0.6"/>
<path d="M888.157 1840.08H892.49V1841.63H881.259V1840.08H886.27V1823.66L881.495 1826.49L880.67 1825.18L886.565 1821.55H888.157V1840.08Z" fill="url(#paint24_linear_301_3036)" fill-opacity="0.6"/>
<path d="M888.157 1873.48H892.49V1875.03H881.259V1873.48H886.27V1857.06L881.495 1859.89L880.67 1858.58L886.565 1854.95H888.157V1873.48Z" fill="url(#paint25_linear_301_3036)" fill-opacity="0.6"/>
<path d="M804.27 1487.26C806.373 1487.26 807.965 1488.15 809.046 1489.92C810.146 1491.68 810.696 1494.23 810.696 1497.58C810.696 1500.93 810.146 1503.49 809.046 1505.26C807.965 1507.04 806.373 1507.92 804.27 1507.92C802.187 1507.92 800.595 1507.04 799.495 1505.26C798.394 1503.49 797.844 1500.93 797.844 1497.58C797.844 1494.25 798.394 1491.69 799.495 1489.92C800.595 1488.15 802.187 1487.26 804.27 1487.26ZM799.937 1497.58C799.937 1499.96 800.153 1501.82 800.585 1503.16L807.129 1490.21C806.442 1489.3 805.488 1488.84 804.27 1488.84C802.914 1488.84 801.853 1489.56 801.086 1491C800.32 1492.43 799.937 1494.62 799.937 1497.58ZM804.27 1506.32C805.646 1506.32 806.717 1505.61 807.483 1504.18C808.25 1502.74 808.633 1500.54 808.633 1497.58C808.633 1495.07 808.387 1493.12 807.896 1491.73L801.352 1504.8C802.059 1505.81 803.032 1506.32 804.27 1506.32Z" fill="url(#paint26_linear_301_3036)" fill-opacity="0.6"/>
<path d="M804.27 1520.66C806.373 1520.66 807.965 1521.55 809.046 1523.32C810.146 1525.08 810.696 1527.63 810.696 1530.98C810.696 1534.33 810.146 1536.89 809.046 1538.66C807.965 1540.44 806.373 1541.32 804.27 1541.32C802.187 1541.32 800.595 1540.44 799.495 1538.66C798.394 1536.89 797.844 1534.33 797.844 1530.98C797.844 1527.65 798.394 1525.09 799.495 1523.32C800.595 1521.55 802.187 1520.66 804.27 1520.66ZM799.937 1530.98C799.937 1533.36 800.153 1535.22 800.585 1536.56L807.129 1523.61C806.442 1522.7 805.488 1522.24 804.27 1522.24C802.914 1522.24 801.853 1522.96 801.086 1524.4C800.32 1525.83 799.937 1528.02 799.937 1530.98ZM804.27 1539.72C805.646 1539.72 806.717 1539.01 807.483 1537.58C808.25 1536.14 808.633 1533.94 808.633 1530.98C808.633 1528.47 808.387 1526.52 807.896 1525.13L801.352 1538.2C802.059 1539.21 803.032 1539.72 804.27 1539.72Z" fill="url(#paint27_linear_301_3036)" fill-opacity="0.6"/>
<path d="M806.039 1572.88H810.372V1574.43H799.141V1572.88H804.152V1556.46L799.377 1559.29L798.551 1557.98L804.447 1554.35H806.039V1572.88Z" fill="url(#paint28_linear_301_3036)" fill-opacity="0.6"/>
<path d="M804.27 1587.46C806.373 1587.46 807.965 1588.35 809.046 1590.12C810.146 1591.88 810.696 1594.43 810.696 1597.78C810.696 1601.13 810.146 1603.69 809.046 1605.46C807.965 1607.24 806.373 1608.12 804.27 1608.12C802.187 1608.12 800.595 1607.24 799.495 1605.46C798.394 1603.69 797.844 1601.13 797.844 1597.78C797.844 1594.45 798.394 1591.89 799.495 1590.12C800.595 1588.35 802.187 1587.46 804.27 1587.46ZM799.937 1597.78C799.937 1600.16 800.153 1602.02 800.585 1603.36L807.129 1590.41C806.442 1589.5 805.488 1589.04 804.27 1589.04C802.914 1589.04 801.853 1589.76 801.086 1591.2C800.32 1592.63 799.937 1594.82 799.937 1597.78ZM804.27 1606.52C805.646 1606.52 806.717 1605.81 807.483 1604.38C808.25 1602.94 808.633 1600.74 808.633 1597.78C808.633 1595.27 808.387 1593.32 807.896 1591.93L801.352 1605C802.059 1606.01 803.032 1606.52 804.27 1606.52Z" fill="url(#paint29_linear_301_3036)" fill-opacity="0.6"/>
<path d="M806.039 1639.68H810.372V1641.23H799.141V1639.68H804.152V1623.26L799.377 1626.09L798.551 1624.78L804.447 1621.15H806.039V1639.68Z" fill="url(#paint30_linear_301_3036)" fill-opacity="0.6"/>
<path d="M806.039 1673.08H810.372V1674.63H799.141V1673.08H804.152V1656.66L799.377 1659.49L798.551 1658.18L804.447 1654.55H806.039V1673.08Z" fill="url(#paint31_linear_301_3036)" fill-opacity="0.6"/>
<path d="M860.784 1439.28H865.118V1440.83H853.886V1439.28H858.898V1422.86L854.122 1425.69L853.297 1424.38L859.192 1420.75H860.784V1439.28Z" fill="url(#paint32_linear_301_3036)" fill-opacity="0.6"/>
<path d="M859.016 1453.86C861.118 1453.86 862.71 1454.75 863.791 1456.52C864.892 1458.28 865.442 1460.83 865.442 1464.18C865.442 1467.53 864.892 1470.09 863.791 1471.86C862.71 1473.64 861.118 1474.52 859.016 1474.52C856.932 1474.52 855.341 1473.64 854.24 1471.86C853.14 1470.09 852.589 1467.53 852.589 1464.18C852.589 1460.85 853.14 1458.29 854.24 1456.52C855.341 1454.75 856.932 1453.86 859.016 1453.86ZM854.682 1464.18C854.682 1466.56 854.898 1468.42 855.331 1469.76L861.875 1456.81C861.187 1455.9 860.234 1455.44 859.016 1455.44C857.66 1455.44 856.598 1456.16 855.832 1457.6C855.066 1459.03 854.682 1461.22 854.682 1464.18ZM859.016 1472.92C860.391 1472.92 861.462 1472.21 862.229 1470.78C862.995 1469.34 863.378 1467.14 863.378 1464.18C863.378 1461.67 863.133 1459.72 862.641 1458.33L856.097 1471.4C856.805 1472.41 857.778 1472.92 859.016 1472.92Z" fill="url(#paint33_linear_301_3036)" fill-opacity="0.6"/>
<path d="M860.784 1506.08H865.118V1507.63H853.886V1506.08H858.898V1489.66L854.122 1492.49L853.297 1491.18L859.192 1487.55H860.784V1506.08Z" fill="url(#paint34_linear_301_3036)" fill-opacity="0.6"/>
<path d="M860.784 1539.48H865.118V1541.03H853.886V1539.48H858.898V1523.06L854.122 1525.89L853.297 1524.58L859.192 1520.95H860.784V1539.48Z" fill="url(#paint35_linear_301_3036)" fill-opacity="0.6"/>
<path d="M859.016 1554.06C861.118 1554.06 862.71 1554.95 863.791 1556.72C864.892 1558.48 865.442 1561.03 865.442 1564.38C865.442 1567.73 864.892 1570.29 863.791 1572.06C862.71 1573.84 861.118 1574.72 859.016 1574.72C856.932 1574.72 855.341 1573.84 854.24 1572.06C853.14 1570.29 852.589 1567.73 852.589 1564.38C852.589 1561.05 853.14 1558.49 854.24 1556.72C855.341 1554.95 856.932 1554.06 859.016 1554.06ZM854.682 1564.38C854.682 1566.76 854.898 1568.62 855.331 1569.96L861.875 1557.01C861.187 1556.1 860.234 1555.64 859.016 1555.64C857.66 1555.64 856.598 1556.36 855.832 1557.8C855.066 1559.23 854.682 1561.42 854.682 1564.38ZM859.016 1573.12C860.391 1573.12 861.462 1572.41 862.229 1570.98C862.995 1569.54 863.378 1567.34 863.378 1564.38C863.378 1561.87 863.133 1559.92 862.641 1558.53L856.097 1571.6C856.805 1572.61 857.778 1573.12 859.016 1573.12Z" fill="url(#paint36_linear_301_3036)" fill-opacity="0.6"/>
<path d="M860.784 1606.28H865.118V1607.83H853.886V1606.28H858.898V1589.86L854.122 1592.69L853.297 1591.38L859.192 1587.75H860.784V1606.28Z" fill="url(#paint37_linear_301_3036)" fill-opacity="0.6"/>
<path d="M860.784 1639.68H865.118V1641.23H853.886V1639.68H858.898V1623.26L854.122 1626.09L853.297 1624.78L859.192 1621.15H860.784V1639.68Z" fill="url(#paint38_linear_301_3036)" fill-opacity="0.6"/>
<path d="M859.016 1654.26C861.118 1654.26 862.71 1655.15 863.791 1656.92C864.892 1658.67 865.442 1661.23 865.442 1664.58C865.442 1667.93 864.892 1670.49 863.791 1672.26C862.71 1674.04 861.118 1674.92 859.016 1674.92C856.932 1674.92 855.341 1674.04 854.24 1672.26C853.14 1670.49 852.589 1667.93 852.589 1664.58C852.589 1661.25 853.14 1658.69 854.24 1656.92C855.341 1655.15 856.932 1654.26 859.016 1654.26ZM854.682 1664.58C854.682 1666.96 854.898 1668.82 855.331 1670.16L861.875 1657.21C861.187 1656.3 860.234 1655.84 859.016 1655.84C857.66 1655.84 856.598 1656.56 855.832 1658C855.066 1659.43 854.682 1661.62 854.682 1664.58ZM859.016 1673.32C860.391 1673.32 861.462 1672.61 862.229 1671.18C862.995 1669.74 863.378 1667.54 863.378 1664.58C863.378 1662.06 863.133 1660.12 862.641 1658.73L856.097 1671.8C856.805 1672.81 857.778 1673.32 859.016 1673.32Z" fill="url(#paint39_linear_301_3036)" fill-opacity="0.6"/>
<path d="M860.784 1706.48H865.118V1708.03H853.886V1706.48H858.898V1690.06L854.122 1692.89L853.297 1691.58L859.192 1687.95H860.784V1706.48Z" fill="url(#paint40_linear_301_3036)" fill-opacity="0.6"/>
<path d="M859.016 1721.06C861.118 1721.06 862.71 1721.95 863.791 1723.72C864.892 1725.47 865.442 1728.03 865.442 1731.38C865.442 1734.73 864.892 1737.29 863.791 1739.06C862.71 1740.84 861.118 1741.72 859.016 1741.72C856.932 1741.72 855.341 1740.84 854.24 1739.06C853.14 1737.29 852.589 1734.73 852.589 1731.38C852.589 1728.05 853.14 1725.49 854.24 1723.72C855.341 1721.95 856.932 1721.06 859.016 1721.06ZM854.682 1731.38C854.682 1733.76 854.898 1735.62 855.331 1736.96L861.875 1724.01C861.187 1723.1 860.234 1722.64 859.016 1722.64C857.66 1722.64 856.598 1723.36 855.832 1724.8C855.066 1726.22 854.682 1728.42 854.682 1731.38ZM859.016 1740.12C860.391 1740.12 861.462 1739.41 862.229 1737.98C862.995 1736.54 863.378 1734.34 863.378 1731.38C863.378 1728.86 863.133 1726.92 862.641 1725.53L856.097 1738.6C856.805 1739.61 857.778 1740.12 859.016 1740.12Z" fill="url(#paint41_linear_301_3036)" fill-opacity="0.6"/>
<path d="M913.761 1420.46C915.864 1420.46 917.456 1421.35 918.537 1423.12C919.637 1424.88 920.187 1427.43 920.187 1430.78C920.187 1434.13 919.637 1436.69 918.537 1438.46C917.456 1440.24 915.864 1441.12 913.761 1441.12C911.678 1441.12 910.086 1440.24 908.986 1438.46C907.885 1436.69 907.335 1434.13 907.335 1430.78C907.335 1427.45 907.885 1424.89 908.986 1423.12C910.086 1421.35 911.678 1420.46 913.761 1420.46ZM909.428 1430.78C909.428 1433.16 909.644 1435.02 910.076 1436.36L916.621 1423.41C915.933 1422.5 914.98 1422.04 913.761 1422.04C912.405 1422.04 911.344 1422.76 910.578 1424.2C909.811 1425.63 909.428 1427.82 909.428 1430.78ZM913.761 1439.52C915.137 1439.52 916.208 1438.81 916.974 1437.38C917.741 1435.94 918.124 1433.74 918.124 1430.78C918.124 1428.27 917.878 1426.32 917.387 1424.93L910.843 1438C911.55 1439.01 912.523 1439.52 913.761 1439.52Z" fill="url(#paint42_linear_301_3036)" fill-opacity="0.6"/>
<path d="M915.53 1472.68H919.863V1474.23H908.632V1472.68H913.643V1456.26L908.868 1459.09L908.042 1457.78L913.938 1454.15H915.53V1472.68Z" fill="url(#paint43_linear_301_3036)" fill-opacity="0.6"/>
<path d="M915.53 1506.08H919.863V1507.63H908.632V1506.08H913.643V1489.66L908.868 1492.49L908.042 1491.18L913.938 1487.55H915.53V1506.08Z" fill="url(#paint44_linear_301_3036)" fill-opacity="0.6"/>
<path d="M913.761 1520.66C915.864 1520.66 917.456 1521.55 918.537 1523.32C919.637 1525.08 920.187 1527.63 920.187 1530.98C920.187 1534.33 919.637 1536.89 918.537 1538.66C917.456 1540.44 915.864 1541.32 913.761 1541.32C911.678 1541.32 910.086 1540.44 908.986 1538.66C907.885 1536.89 907.335 1534.33 907.335 1530.98C907.335 1527.65 907.885 1525.09 908.986 1523.32C910.086 1521.55 911.678 1520.66 913.761 1520.66ZM909.428 1530.98C909.428 1533.36 909.644 1535.22 910.076 1536.56L916.621 1523.61C915.933 1522.7 914.98 1522.24 913.761 1522.24C912.405 1522.24 911.344 1522.96 910.578 1524.4C909.811 1525.83 909.428 1528.02 909.428 1530.98ZM913.761 1539.72C915.137 1539.72 916.208 1539.01 916.974 1537.58C917.741 1536.14 918.124 1533.94 918.124 1530.98C918.124 1528.47 917.878 1526.52 917.387 1525.13L910.843 1538.2C911.55 1539.21 912.523 1539.72 913.761 1539.72Z" fill="url(#paint45_linear_301_3036)" fill-opacity="0.6"/>
<path d="M913.761 1554.06C915.864 1554.06 917.456 1554.95 918.537 1556.72C919.637 1558.48 920.187 1561.03 920.187 1564.38C920.187 1567.73 919.637 1570.29 918.537 1572.06C917.456 1573.84 915.864 1574.72 913.761 1574.72C911.678 1574.72 910.086 1573.84 908.986 1572.06C907.885 1570.29 907.335 1567.73 907.335 1564.38C907.335 1561.05 907.885 1558.49 908.986 1556.72C910.086 1554.95 911.678 1554.06 913.761 1554.06ZM909.428 1564.38C909.428 1566.76 909.644 1568.62 910.076 1569.96L916.621 1557.01C915.933 1556.1 914.98 1555.64 913.761 1555.64C912.405 1555.64 911.344 1556.36 910.578 1557.8C909.811 1559.23 909.428 1561.42 909.428 1564.38ZM913.761 1573.12C915.137 1573.12 916.208 1572.41 916.974 1570.98C917.741 1569.54 918.124 1567.34 918.124 1564.38C918.124 1561.87 917.878 1559.92 917.387 1558.53L910.843 1571.6C911.55 1572.61 912.523 1573.12 913.761 1573.12Z" fill="url(#paint46_linear_301_3036)" fill-opacity="0.6"/>
<g opacity="0.6">
<path d="M2078.84 965.188C2080.84 965.188 2082.36 966.038 2083.39 967.74C2084.44 969.422 2084.97 971.872 2084.97 975.088C2084.97 978.304 2084.44 980.762 2083.39 982.464C2082.36 984.165 2080.84 985.016 2078.84 985.016C2076.85 985.016 2075.33 984.165 2074.28 982.464C2073.23 980.762 2072.71 978.304 2072.71 975.088C2072.71 971.89 2073.23 969.441 2074.28 967.74C2075.33 966.038 2076.85 965.188 2078.84 965.188ZM2074.7 975.088C2074.7 977.369 2074.91 979.154 2075.32 980.444L2081.57 968.02C2080.91 967.141 2080 966.702 2078.84 966.702C2077.55 966.702 2076.53 967.394 2075.8 968.777C2075.07 970.142 2074.7 972.246 2074.7 975.088ZM2078.84 983.473C2080.15 983.473 2081.17 982.791 2081.9 981.426C2082.64 980.042 2083 977.93 2083 975.088C2083 972.676 2082.77 970.806 2082.3 969.479L2076.05 982.015C2076.73 982.987 2077.66 983.473 2078.84 983.473Z" fill="url(#paint47_linear_301_3036)"/>
<path d="M2080.53 1015.3H2084.66V1016.79H2073.95V1015.3H2078.73V999.54L2074.17 1002.26L2073.38 1001L2079.01 997.52H2080.53V1015.3Z" fill="url(#paint48_linear_301_3036)"/>
<path d="M2078.84 1029.29C2080.84 1029.29 2082.36 1030.14 2083.39 1031.84C2084.44 1033.53 2084.97 1035.98 2084.97 1039.19C2084.97 1042.41 2084.44 1044.87 2083.39 1046.57C2082.36 1048.27 2080.84 1049.12 2078.84 1049.12C2076.85 1049.12 2075.33 1048.27 2074.28 1046.57C2073.23 1044.87 2072.71 1042.41 2072.71 1039.19C2072.71 1036 2073.23 1033.55 2074.28 1031.84C2075.33 1030.14 2076.85 1029.29 2078.84 1029.29ZM2074.7 1039.19C2074.7 1041.47 2074.91 1043.26 2075.32 1044.55L2081.57 1032.12C2080.91 1031.25 2080 1030.81 2078.84 1030.81C2077.55 1030.81 2076.53 1031.5 2075.8 1032.88C2075.07 1034.25 2074.7 1036.35 2074.7 1039.19ZM2078.84 1047.58C2080.15 1047.58 2081.17 1046.9 2081.9 1045.53C2082.64 1044.15 2083 1042.03 2083 1039.19C2083 1036.78 2082.77 1034.91 2082.3 1033.58L2076.05 1046.12C2076.73 1047.09 2077.66 1047.58 2078.84 1047.58Z" fill="url(#paint49_linear_301_3036)"/>
<path d="M2080.53 1079.41H2084.66V1080.89H2073.95V1079.41H2078.73V1063.64L2074.17 1066.36L2073.38 1065.1L2079.01 1061.63H2080.53V1079.41Z" fill="url(#paint50_linear_301_3036)"/>
<path d="M2080.53 1111.46H2084.66V1112.94H2073.95V1111.46H2078.73V1095.7L2074.17 1098.42L2073.38 1097.16L2079.01 1093.68H2080.53V1111.46Z" fill="url(#paint51_linear_301_3036)"/>
<path d="M2078.84 1125.45C2080.84 1125.45 2082.36 1126.3 2083.39 1128C2084.44 1129.68 2084.97 1132.13 2084.97 1135.35C2084.97 1138.57 2084.44 1141.02 2083.39 1142.73C2082.36 1144.43 2080.84 1145.28 2078.84 1145.28C2076.85 1145.28 2075.33 1144.43 2074.28 1142.73C2073.23 1141.02 2072.71 1138.57 2072.71 1135.35C2072.71 1132.15 2073.23 1129.7 2074.28 1128C2075.33 1126.3 2076.85 1125.45 2078.84 1125.45ZM2074.7 1135.35C2074.7 1137.63 2074.91 1139.42 2075.32 1140.71L2081.57 1128.28C2080.91 1127.4 2080 1126.96 2078.84 1126.96C2077.55 1126.96 2076.53 1127.66 2075.8 1129.04C2075.07 1130.4 2074.7 1132.51 2074.7 1135.35ZM2078.84 1143.74C2080.15 1143.74 2081.17 1143.05 2081.9 1141.69C2082.64 1140.3 2083 1138.19 2083 1135.35C2083 1132.94 2082.77 1131.07 2082.3 1129.74L2076.05 1142.28C2076.73 1143.25 2077.66 1143.74 2078.84 1143.74Z" fill="url(#paint52_linear_301_3036)"/>
<path d="M2080.53 1175.56H2084.66V1177.05H2073.95V1175.56H2078.73V1159.8L2074.17 1162.52L2073.38 1161.26L2079.01 1157.78H2080.53V1175.56Z" fill="url(#paint53_linear_301_3036)"/>
<path d="M2078.84 1189.55C2080.84 1189.55 2082.36 1190.4 2083.39 1192.11C2084.44 1193.79 2084.97 1196.24 2084.97 1199.45C2084.97 1202.67 2084.44 1205.13 2083.39 1206.83C2082.36 1208.53 2080.84 1209.38 2078.84 1209.38C2076.85 1209.38 2075.33 1208.53 2074.28 1206.83C2073.23 1205.13 2072.71 1202.67 2072.71 1199.45C2072.71 1196.26 2073.23 1193.81 2074.28 1192.11C2075.33 1190.4 2076.85 1189.55 2078.84 1189.55ZM2074.7 1199.45C2074.7 1201.74 2074.91 1203.52 2075.32 1204.81L2081.57 1192.39C2080.91 1191.51 2080 1191.07 2078.84 1191.07C2077.55 1191.07 2076.53 1191.76 2075.8 1193.14C2075.07 1194.51 2074.7 1196.61 2074.7 1199.45ZM2078.84 1207.84C2080.15 1207.84 2081.17 1207.16 2081.9 1205.79C2082.64 1204.41 2083 1202.3 2083 1199.45C2083 1197.04 2082.77 1195.17 2082.3 1193.85L2076.05 1206.38C2076.73 1207.35 2077.66 1207.84 2078.84 1207.84Z" fill="url(#paint54_linear_301_3036)"/>
<path d="M2078.84 1221.61C2080.84 1221.61 2082.36 1222.46 2083.39 1224.16C2084.44 1225.84 2084.97 1228.29 2084.97 1231.51C2084.97 1234.72 2084.44 1237.18 2083.39 1238.88C2082.36 1240.58 2080.84 1241.43 2078.84 1241.43C2076.85 1241.43 2075.33 1240.58 2074.28 1238.88C2073.23 1237.18 2072.71 1234.72 2072.71 1231.51C2072.71 1228.31 2073.23 1225.86 2074.28 1224.16C2075.33 1222.46 2076.85 1221.61 2078.84 1221.61ZM2074.7 1231.51C2074.7 1233.79 2074.91 1235.57 2075.32 1236.86L2081.57 1224.44C2080.91 1223.56 2080 1223.12 2078.84 1223.12C2077.55 1223.12 2076.53 1223.81 2075.8 1225.2C2075.07 1226.56 2074.7 1228.66 2074.7 1231.51ZM2078.84 1239.89C2080.15 1239.89 2081.17 1239.21 2081.9 1237.85C2082.64 1236.46 2083 1234.35 2083 1231.51C2083 1229.09 2082.77 1227.23 2082.3 1225.9L2076.05 1238.43C2076.73 1239.41 2077.66 1239.89 2078.84 1239.89Z" fill="url(#paint55_linear_301_3036)"/>
<path d="M2080.53 1271.72H2084.66V1273.21H2073.95V1271.72H2078.73V1255.96L2074.17 1258.68L2073.38 1257.42L2079.01 1253.94H2080.53V1271.72Z" fill="url(#paint56_linear_301_3036)"/>
<path d="M2078.84 1285.71C2080.84 1285.71 2082.36 1286.56 2083.39 1288.26C2084.44 1289.95 2084.97 1292.4 2084.97 1295.61C2084.97 1298.83 2084.44 1301.29 2083.39 1302.99C2082.36 1304.69 2080.84 1305.54 2078.84 1305.54C2076.85 1305.54 2075.33 1304.69 2074.28 1302.99C2073.23 1301.29 2072.71 1298.83 2072.71 1295.61C2072.71 1292.41 2073.23 1289.96 2074.28 1288.26C2075.33 1286.56 2076.85 1285.71 2078.84 1285.71ZM2074.7 1295.61C2074.7 1297.89 2074.91 1299.68 2075.32 1300.97L2081.57 1288.54C2080.91 1287.67 2080 1287.23 2078.84 1287.23C2077.55 1287.23 2076.53 1287.92 2075.8 1289.3C2075.07 1290.67 2074.7 1292.77 2074.7 1295.61ZM2078.84 1304C2080.15 1304 2081.17 1303.31 2081.9 1301.95C2082.64 1300.57 2083 1298.45 2083 1295.61C2083 1293.2 2082.77 1291.33 2082.3 1290L2076.05 1302.54C2076.73 1303.51 2077.66 1304 2078.84 1304Z" fill="url(#paint57_linear_301_3036)"/>
<path d="M2080.53 1335.83H2084.66V1337.31H2073.95V1335.83H2078.73V1320.06L2074.17 1322.78L2073.38 1321.52L2079.01 1318.04H2080.53V1335.83Z" fill="url(#paint58_linear_301_3036)"/>
<path d="M2080.53 1367.88H2084.66V1369.36H2073.95V1367.88H2078.73V1352.12L2074.17 1354.84L2073.38 1353.57L2079.01 1350.1H2080.53V1367.88Z" fill="url(#paint59_linear_301_3036)"/>
<path d="M2131.07 1029.29C2133.07 1029.29 2134.59 1030.14 2135.62 1031.84C2136.67 1033.53 2137.2 1035.98 2137.2 1039.19C2137.2 1042.41 2136.67 1044.87 2135.62 1046.57C2134.59 1048.27 2133.07 1049.12 2131.07 1049.12C2129.08 1049.12 2127.56 1048.27 2126.51 1046.57C2125.46 1044.87 2124.94 1042.41 2124.94 1039.19C2124.94 1036 2125.46 1033.55 2126.51 1031.84C2127.56 1030.14 2129.08 1029.29 2131.07 1029.29ZM2126.93 1039.19C2126.93 1041.47 2127.14 1043.26 2127.55 1044.55L2133.8 1032.12C2133.14 1031.25 2132.23 1030.81 2131.07 1030.81C2129.77 1030.81 2128.76 1031.5 2128.03 1032.88C2127.3 1034.25 2126.93 1036.35 2126.93 1039.19ZM2131.07 1047.58C2132.38 1047.58 2133.4 1046.9 2134.13 1045.53C2134.86 1044.15 2135.23 1042.03 2135.23 1039.19C2135.23 1036.78 2135 1034.91 2134.53 1033.58L2128.28 1046.12C2128.96 1047.09 2129.89 1047.58 2131.07 1047.58Z" fill="url(#paint60_linear_301_3036)"/>
<path d="M2132.75 1079.41H2136.89V1080.89H2126.17V1079.41H2130.95V1063.64L2126.4 1066.36L2125.61 1065.1L2131.24 1061.63H2132.75V1079.41Z" fill="url(#paint61_linear_301_3036)"/>
<path d="M2131.07 1093.4C2133.07 1093.4 2134.59 1094.25 2135.62 1095.95C2136.67 1097.63 2137.2 1100.08 2137.2 1103.3C2137.2 1106.51 2136.67 1108.97 2135.62 1110.67C2134.59 1112.37 2133.07 1113.23 2131.07 1113.23C2129.08 1113.23 2127.56 1112.37 2126.51 1110.67C2125.46 1108.97 2124.94 1106.51 2124.94 1103.3C2124.94 1100.1 2125.46 1097.65 2126.51 1095.95C2127.56 1094.25 2129.08 1093.4 2131.07 1093.4ZM2126.93 1103.3C2126.93 1105.58 2127.14 1107.36 2127.55 1108.65L2133.8 1096.23C2133.14 1095.35 2132.23 1094.91 2131.07 1094.91C2129.77 1094.91 2128.76 1095.6 2128.03 1096.99C2127.3 1098.35 2126.93 1100.46 2126.93 1103.3ZM2131.07 1111.68C2132.38 1111.68 2133.4 1111 2134.13 1109.64C2134.86 1108.25 2135.23 1106.14 2135.23 1103.3C2135.23 1100.89 2135 1099.02 2134.53 1097.69L2128.28 1110.22C2128.96 1111.2 2129.89 1111.68 2131.07 1111.68Z" fill="url(#paint62_linear_301_3036)"/>
<path d="M2131.07 1125.45C2133.07 1125.45 2134.59 1126.3 2135.62 1128C2136.67 1129.68 2137.2 1132.13 2137.2 1135.35C2137.2 1138.57 2136.67 1141.02 2135.62 1142.73C2134.59 1144.43 2133.07 1145.28 2131.07 1145.28C2129.08 1145.28 2127.56 1144.43 2126.51 1142.73C2125.46 1141.02 2124.94 1138.57 2124.94 1135.35C2124.94 1132.15 2125.46 1129.7 2126.51 1128C2127.56 1126.3 2129.08 1125.45 2131.07 1125.45ZM2126.93 1135.35C2126.93 1137.63 2127.14 1139.42 2127.55 1140.71L2133.8 1128.28C2133.14 1127.4 2132.23 1126.96 2131.07 1126.96C2129.77 1126.96 2128.76 1127.66 2128.03 1129.04C2127.3 1130.4 2126.93 1132.51 2126.93 1135.35ZM2131.07 1143.74C2132.38 1143.74 2133.4 1143.05 2134.13 1141.69C2134.86 1140.3 2135.23 1138.19 2135.23 1135.35C2135.23 1132.94 2135 1131.07 2134.53 1129.74L2128.28 1142.28C2128.96 1143.25 2129.89 1143.74 2131.07 1143.74Z" fill="url(#paint63_linear_301_3036)"/>
<path d="M2132.75 1175.56H2136.89V1177.05H2126.17V1175.56H2130.95V1159.8L2126.4 1162.52L2125.61 1161.26L2131.24 1157.78H2132.75V1175.56Z" fill="url(#paint64_linear_301_3036)"/>
<path d="M2131.07 1189.55C2133.07 1189.55 2134.59 1190.4 2135.62 1192.11C2136.67 1193.79 2137.2 1196.24 2137.2 1199.45C2137.2 1202.67 2136.67 1205.13 2135.62 1206.83C2134.59 1208.53 2133.07 1209.38 2131.07 1209.38C2129.08 1209.38 2127.56 1208.53 2126.51 1206.83C2125.46 1205.13 2124.94 1202.67 2124.94 1199.45C2124.94 1196.26 2125.46 1193.81 2126.51 1192.11C2127.56 1190.4 2129.08 1189.55 2131.07 1189.55ZM2126.93 1199.45C2126.93 1201.74 2127.14 1203.52 2127.55 1204.81L2133.8 1192.39C2133.14 1191.51 2132.23 1191.07 2131.07 1191.07C2129.77 1191.07 2128.76 1191.76 2128.03 1193.14C2127.3 1194.51 2126.93 1196.61 2126.93 1199.45ZM2131.07 1207.84C2132.38 1207.84 2133.4 1207.16 2134.13 1205.79C2134.86 1204.41 2135.23 1202.3 2135.23 1199.45C2135.23 1197.04 2135 1195.17 2134.53 1193.85L2128.28 1206.38C2128.96 1207.35 2129.89 1207.84 2131.07 1207.84Z" fill="url(#paint65_linear_301_3036)"/>
<path d="M2132.75 1239.67H2136.89V1241.15H2126.17V1239.67H2130.95V1223.91L2126.4 1226.63L2125.61 1225.36L2131.24 1221.89H2132.75V1239.67Z" fill="url(#paint66_linear_301_3036)"/>
<path d="M2131.07 1253.66C2133.07 1253.66 2134.59 1254.51 2135.62 1256.21C2136.67 1257.89 2137.2 1260.34 2137.2 1263.56C2137.2 1266.78 2136.67 1269.23 2135.62 1270.94C2134.59 1272.64 2133.07 1273.49 2131.07 1273.49C2129.08 1273.49 2127.56 1272.64 2126.51 1270.94C2125.46 1269.23 2124.94 1266.78 2124.94 1263.56C2124.94 1260.36 2125.46 1257.91 2126.51 1256.21C2127.56 1254.51 2129.08 1253.66 2131.07 1253.66ZM2126.93 1263.56C2126.93 1265.84 2127.14 1267.63 2127.55 1268.92L2133.8 1256.49C2133.14 1255.61 2132.23 1255.17 2131.07 1255.17C2129.77 1255.17 2128.76 1255.87 2128.03 1257.25C2127.3 1258.61 2126.93 1260.72 2126.93 1263.56ZM2131.07 1271.94C2132.38 1271.94 2133.4 1271.26 2134.13 1269.9C2134.86 1268.51 2135.23 1266.4 2135.23 1263.56C2135.23 1261.15 2135 1259.28 2134.53 1257.95L2128.28 1270.49C2128.96 1271.46 2129.89 1271.94 2131.07 1271.94Z" fill="url(#paint67_linear_301_3036)"/>
<path d="M2131.07 1285.71C2133.07 1285.71 2134.59 1286.56 2135.62 1288.26C2136.67 1289.95 2137.2 1292.4 2137.2 1295.61C2137.2 1298.83 2136.67 1301.29 2135.62 1302.99C2134.59 1304.69 2133.07 1305.54 2131.07 1305.54C2129.08 1305.54 2127.56 1304.69 2126.51 1302.99C2125.46 1301.29 2124.94 1298.83 2124.94 1295.61C2124.94 1292.41 2125.46 1289.96 2126.51 1288.26C2127.56 1286.56 2129.08 1285.71 2131.07 1285.71ZM2126.93 1295.61C2126.93 1297.89 2127.14 1299.68 2127.55 1300.97L2133.8 1288.54C2133.14 1287.67 2132.23 1287.23 2131.07 1287.23C2129.77 1287.23 2128.76 1287.92 2128.03 1289.3C2127.3 1290.67 2126.93 1292.77 2126.93 1295.61ZM2131.07 1304C2132.38 1304 2133.4 1303.31 2134.13 1301.95C2134.86 1300.57 2135.23 1298.45 2135.23 1295.61C2135.23 1293.2 2135 1291.33 2134.53 1290L2128.28 1302.54C2128.96 1303.51 2129.89 1304 2131.07 1304Z" fill="url(#paint68_linear_301_3036)"/>
<path d="M2132.75 1335.83H2136.89V1337.31H2126.17V1335.83H2130.95V1320.06L2126.4 1322.78L2125.61 1321.52L2131.24 1318.04H2132.75V1335.83Z" fill="url(#paint69_linear_301_3036)"/>
<path d="M2131.07 1349.82C2133.07 1349.82 2134.59 1350.67 2135.62 1352.37C2136.67 1354.05 2137.2 1356.5 2137.2 1359.72C2137.2 1362.93 2136.67 1365.39 2135.62 1367.09C2134.59 1368.79 2133.07 1369.64 2131.07 1369.64C2129.08 1369.64 2127.56 1368.79 2126.51 1367.09C2125.46 1365.39 2124.94 1362.93 2124.94 1359.72C2124.94 1356.52 2125.46 1354.07 2126.51 1352.37C2127.56 1350.67 2129.08 1349.82 2131.07 1349.82ZM2126.93 1359.72C2126.93 1362 2127.14 1363.78 2127.55 1365.07L2133.8 1352.65C2133.14 1351.77 2132.23 1351.33 2131.07 1351.33C2129.77 1351.33 2128.76 1352.02 2128.03 1353.41C2127.3 1354.77 2126.93 1356.87 2126.93 1359.72ZM2131.07 1368.1C2132.38 1368.1 2133.4 1367.42 2134.13 1366.05C2134.86 1364.67 2135.23 1362.56 2135.23 1359.72C2135.23 1357.3 2135 1355.43 2134.53 1354.11L2128.28 1366.64C2128.96 1367.62 2129.89 1368.1 2131.07 1368.1Z" fill="url(#paint70_linear_301_3036)"/>
<path d="M2132.75 1399.93H2136.89V1401.42H2126.17V1399.93H2130.95V1384.17L2126.4 1386.89L2125.61 1385.63L2131.24 1382.15H2132.75V1399.93Z" fill="url(#paint71_linear_301_3036)"/>
<path d="M2132.75 1431.98H2136.89V1433.47H2126.17V1431.98H2130.95V1416.22L2126.4 1418.94L2125.61 1417.68L2131.24 1414.2H2132.75V1431.98Z" fill="url(#paint72_linear_301_3036)"/>
<path d="M2052.72 1061.34C2054.73 1061.34 2056.25 1062.2 2057.28 1063.9C2058.33 1065.58 2058.86 1068.03 2058.86 1071.24C2058.86 1074.46 2058.33 1076.92 2057.28 1078.62C2056.25 1080.32 2054.73 1081.17 2052.72 1081.17C2050.74 1081.17 2049.22 1080.32 2048.17 1078.62C2047.12 1076.92 2046.59 1074.46 2046.59 1071.24C2046.59 1068.05 2047.12 1065.6 2048.17 1063.9C2049.22 1062.2 2050.74 1061.34 2052.72 1061.34ZM2048.59 1071.24C2048.59 1073.53 2048.8 1075.31 2049.21 1076.6L2055.45 1064.18C2054.8 1063.3 2053.89 1062.86 2052.72 1062.86C2051.43 1062.86 2050.42 1063.55 2049.69 1064.93C2048.96 1066.3 2048.59 1068.4 2048.59 1071.24ZM2052.72 1079.63C2054.04 1079.63 2055.06 1078.95 2055.79 1077.58C2056.52 1076.2 2056.89 1074.09 2056.89 1071.24C2056.89 1068.83 2056.65 1066.96 2056.18 1065.64L2049.94 1078.17C2050.62 1079.14 2051.54 1079.63 2052.72 1079.63Z" fill="url(#paint73_linear_301_3036)"/>
<path d="M2052.72 1093.4C2054.73 1093.4 2056.25 1094.25 2057.28 1095.95C2058.33 1097.63 2058.86 1100.08 2058.86 1103.3C2058.86 1106.51 2058.33 1108.97 2057.28 1110.67C2056.25 1112.37 2054.73 1113.23 2052.72 1113.23C2050.74 1113.23 2049.22 1112.37 2048.17 1110.67C2047.12 1108.97 2046.59 1106.51 2046.59 1103.3C2046.59 1100.1 2047.12 1097.65 2048.17 1095.95C2049.22 1094.25 2050.74 1093.4 2052.72 1093.4ZM2048.59 1103.3C2048.59 1105.58 2048.8 1107.36 2049.21 1108.65L2055.45 1096.23C2054.8 1095.35 2053.89 1094.91 2052.72 1094.91C2051.43 1094.91 2050.42 1095.6 2049.69 1096.99C2048.96 1098.35 2048.59 1100.46 2048.59 1103.3ZM2052.72 1111.68C2054.04 1111.68 2055.06 1111 2055.79 1109.64C2056.52 1108.25 2056.89 1106.14 2056.89 1103.3C2056.89 1100.89 2056.65 1099.02 2056.18 1097.69L2049.94 1110.22C2050.62 1111.2 2051.54 1111.68 2052.72 1111.68Z" fill="url(#paint74_linear_301_3036)"/>
<path d="M2054.41 1143.51H2058.55V1145H2047.83V1143.51H2052.61V1127.75L2048.06 1130.47L2047.27 1129.21L2052.89 1125.73H2054.41V1143.51Z" fill="url(#paint75_linear_301_3036)"/>
<path d="M2052.72 1157.5C2054.73 1157.5 2056.25 1158.35 2057.28 1160.05C2058.33 1161.74 2058.86 1164.19 2058.86 1167.4C2058.86 1170.62 2058.33 1173.08 2057.28 1174.78C2056.25 1176.48 2054.73 1177.33 2052.72 1177.33C2050.74 1177.33 2049.22 1176.48 2048.17 1174.78C2047.12 1173.08 2046.59 1170.62 2046.59 1167.4C2046.59 1164.2 2047.12 1161.76 2048.17 1160.05C2049.22 1158.35 2050.74 1157.5 2052.72 1157.5ZM2048.59 1167.4C2048.59 1169.68 2048.8 1171.47 2049.21 1172.76L2055.45 1160.33C2054.8 1159.46 2053.89 1159.02 2052.72 1159.02C2051.43 1159.02 2050.42 1159.71 2049.69 1161.09C2048.96 1162.46 2048.59 1164.56 2048.59 1167.4ZM2052.72 1175.79C2054.04 1175.79 2055.06 1175.11 2055.79 1173.74C2056.52 1172.36 2056.89 1170.24 2056.89 1167.4C2056.89 1164.99 2056.65 1163.12 2056.18 1161.79L2049.94 1174.33C2050.62 1175.3 2051.54 1175.79 2052.72 1175.79Z" fill="url(#paint76_linear_301_3036)"/>
<path d="M2054.41 1207.62H2058.55V1209.1H2047.83V1207.62H2052.61V1191.85L2048.06 1194.57L2047.27 1193.31L2052.89 1189.83H2054.41V1207.62Z" fill="url(#paint77_linear_301_3036)"/>
<path d="M2054.41 1239.67H2058.55V1241.15H2047.83V1239.67H2052.61V1223.91L2048.06 1226.63L2047.27 1225.36L2052.89 1221.89H2054.41V1239.67Z" fill="url(#paint78_linear_301_3036)"/>
<path d="M2106.64 1015.3H2110.77V1016.79H2100.06V1015.3H2104.84V999.54L2100.28 1002.26L2099.5 1001L2105.12 997.52H2106.64V1015.3Z" fill="url(#paint79_linear_301_3036)"/>
<path d="M2104.95 1029.29C2106.96 1029.29 2108.48 1030.14 2109.51 1031.84C2110.56 1033.53 2111.08 1035.98 2111.08 1039.19C2111.08 1042.41 2110.56 1044.87 2109.51 1046.57C2108.48 1048.27 2106.96 1049.12 2104.95 1049.12C2102.97 1049.12 2101.45 1048.27 2100.4 1046.57C2099.35 1044.87 2098.82 1042.41 2098.82 1039.19C2098.82 1036 2099.35 1033.55 2100.4 1031.84C2101.45 1030.14 2102.97 1029.29 2104.95 1029.29ZM2100.82 1039.19C2100.82 1041.47 2101.03 1043.26 2101.44 1044.55L2107.68 1032.12C2107.02 1031.25 2106.12 1030.81 2104.95 1030.81C2103.66 1030.81 2102.65 1031.5 2101.92 1032.88C2101.18 1034.25 2100.82 1036.35 2100.82 1039.19ZM2104.95 1047.58C2106.27 1047.58 2107.29 1046.9 2108.02 1045.53C2108.75 1044.15 2109.12 1042.03 2109.12 1039.19C2109.12 1036.78 2108.88 1034.91 2108.41 1033.58L2102.17 1046.12C2102.84 1047.09 2103.77 1047.58 2104.95 1047.58Z" fill="url(#paint80_linear_301_3036)"/>
<path d="M2106.64 1079.41H2110.77V1080.89H2100.06V1079.41H2104.84V1063.64L2100.28 1066.36L2099.5 1065.1L2105.12 1061.63H2106.64V1079.41Z" fill="url(#paint81_linear_301_3036)"/>
<path d="M2106.64 1111.46H2110.77V1112.94H2100.06V1111.46H2104.84V1095.7L2100.28 1098.42L2099.5 1097.16L2105.12 1093.68H2106.64V1111.46Z" fill="url(#paint82_linear_301_3036)"/>
<path d="M2104.95 1125.45C2106.96 1125.45 2108.48 1126.3 2109.51 1128C2110.56 1129.68 2111.08 1132.13 2111.08 1135.35C2111.08 1138.57 2110.56 1141.02 2109.51 1142.73C2108.48 1144.43 2106.96 1145.28 2104.95 1145.28C2102.97 1145.28 2101.45 1144.43 2100.4 1142.73C2099.35 1141.02 2098.82 1138.57 2098.82 1135.35C2098.82 1132.15 2099.35 1129.7 2100.4 1128C2101.45 1126.3 2102.97 1125.45 2104.95 1125.45ZM2100.82 1135.35C2100.82 1137.63 2101.03 1139.42 2101.44 1140.71L2107.68 1128.28C2107.02 1127.4 2106.12 1126.96 2104.95 1126.96C2103.66 1126.96 2102.65 1127.66 2101.92 1129.04C2101.18 1130.4 2100.82 1132.51 2100.82 1135.35ZM2104.95 1143.74C2106.27 1143.74 2107.29 1143.05 2108.02 1141.69C2108.75 1140.3 2109.12 1138.19 2109.12 1135.35C2109.12 1132.94 2108.88 1131.07 2108.41 1129.74L2102.17 1142.28C2102.84 1143.25 2103.77 1143.74 2104.95 1143.74Z" fill="url(#paint83_linear_301_3036)"/>
<path d="M2106.64 1175.56H2110.77V1177.05H2100.06V1175.56H2104.84V1159.8L2100.28 1162.52L2099.5 1161.26L2105.12 1157.78H2106.64V1175.56Z" fill="url(#paint84_linear_301_3036)"/>
<path d="M2106.64 1207.62H2110.77V1209.1H2100.06V1207.62H2104.84V1191.85L2100.28 1194.57L2099.5 1193.31L2105.12 1189.83H2106.64V1207.62Z" fill="url(#paint85_linear_301_3036)"/>
<path d="M2104.95 1221.61C2106.96 1221.61 2108.48 1222.46 2109.51 1224.16C2110.56 1225.84 2111.08 1228.29 2111.08 1231.51C2111.08 1234.72 2110.56 1237.18 2109.51 1238.88C2108.48 1240.58 2106.96 1241.43 2104.95 1241.43C2102.97 1241.43 2101.45 1240.58 2100.4 1238.88C2099.35 1237.18 2098.82 1234.72 2098.82 1231.51C2098.82 1228.31 2099.35 1225.86 2100.4 1224.16C2101.45 1222.46 2102.97 1221.61 2104.95 1221.61ZM2100.82 1231.51C2100.82 1233.79 2101.03 1235.57 2101.44 1236.86L2107.68 1224.44C2107.02 1223.56 2106.12 1223.12 2104.95 1223.12C2103.66 1223.12 2102.65 1223.81 2101.92 1225.2C2101.18 1226.56 2100.82 1228.66 2100.82 1231.51ZM2104.95 1239.89C2106.27 1239.89 2107.29 1239.21 2108.02 1237.85C2108.75 1236.46 2109.12 1234.35 2109.12 1231.51C2109.12 1229.09 2108.88 1227.23 2108.41 1225.9L2102.17 1238.43C2102.84 1239.41 2103.77 1239.89 2104.95 1239.89Z" fill="url(#paint86_linear_301_3036)"/>
<path d="M2106.64 1271.72H2110.77V1273.21H2100.06V1271.72H2104.84V1255.96L2100.28 1258.68L2099.5 1257.42L2105.12 1253.94H2106.64V1271.72Z" fill="url(#paint87_linear_301_3036)"/>
<path d="M2104.95 1285.71C2106.96 1285.71 2108.48 1286.56 2109.51 1288.26C2110.56 1289.95 2111.08 1292.4 2111.08 1295.61C2111.08 1298.83 2110.56 1301.29 2109.51 1302.99C2108.48 1304.69 2106.96 1305.54 2104.95 1305.54C2102.97 1305.54 2101.45 1304.69 2100.4 1302.99C2099.35 1301.29 2098.82 1298.83 2098.82 1295.61C2098.82 1292.41 2099.35 1289.96 2100.4 1288.26C2101.45 1286.56 2102.97 1285.71 2104.95 1285.71ZM2100.82 1295.61C2100.82 1297.89 2101.03 1299.68 2101.44 1300.97L2107.68 1288.54C2107.02 1287.67 2106.12 1287.23 2104.95 1287.23C2103.66 1287.23 2102.65 1287.92 2101.92 1289.3C2101.18 1290.67 2100.82 1292.77 2100.82 1295.61ZM2104.95 1304C2106.27 1304 2107.29 1303.31 2108.02 1301.95C2108.75 1300.57 2109.12 1298.45 2109.12 1295.61C2109.12 1293.2 2108.88 1291.33 2108.41 1290L2102.17 1302.54C2102.84 1303.51 2103.77 1304 2104.95 1304Z" fill="url(#paint88_linear_301_3036)"/>
<path d="M2157.18 997.24C2159.19 997.24 2160.71 998.091 2161.74 999.792C2162.79 1001.47 2163.31 1003.92 2163.31 1007.14C2163.31 1010.36 2162.79 1012.81 2161.74 1014.52C2160.71 1016.22 2159.19 1017.07 2157.18 1017.07C2155.19 1017.07 2153.68 1016.22 2152.63 1014.52C2151.58 1012.81 2151.05 1010.36 2151.05 1007.14C2151.05 1003.94 2151.58 1001.49 2152.63 999.792C2153.68 998.091 2155.19 997.24 2157.18 997.24ZM2153.05 1007.14C2153.05 1009.42 2153.25 1011.21 2153.67 1012.5L2159.91 1000.07C2159.25 999.194 2158.34 998.754 2157.18 998.754C2155.89 998.754 2154.88 999.446 2154.14 1000.83C2153.41 1002.19 2153.05 1004.3 2153.05 1007.14ZM2157.18 1015.53C2158.49 1015.53 2159.52 1014.84 2160.25 1013.48C2160.98 1012.09 2161.34 1009.98 2161.34 1007.14C2161.34 1004.73 2161.11 1002.86 2160.64 1001.53L2154.4 1014.07C2155.07 1015.04 2156 1015.53 2157.18 1015.53Z" fill="url(#paint89_linear_301_3036)"/>
<path d="M2158.87 1047.35H2163V1048.84H2152.29V1047.35H2157.07V1031.59L2152.51 1034.31L2151.73 1033.05L2157.35 1029.57H2158.87V1047.35Z" fill="url(#paint90_linear_301_3036)"/>
<path d="M2158.87 1079.41H2163V1080.89H2152.29V1079.41H2157.07V1063.64L2152.51 1066.36L2151.73 1065.1L2157.35 1061.63H2158.87V1079.41Z" fill="url(#paint91_linear_301_3036)"/>
<path d="M2157.18 1093.4C2159.19 1093.4 2160.71 1094.25 2161.74 1095.95C2162.79 1097.63 2163.31 1100.08 2163.31 1103.3C2163.31 1106.51 2162.79 1108.97 2161.74 1110.67C2160.71 1112.37 2159.19 1113.23 2157.18 1113.23C2155.19 1113.23 2153.68 1112.37 2152.63 1110.67C2151.58 1108.97 2151.05 1106.51 2151.05 1103.3C2151.05 1100.1 2151.58 1097.65 2152.63 1095.95C2153.68 1094.25 2155.19 1093.4 2157.18 1093.4ZM2153.05 1103.3C2153.05 1105.58 2153.25 1107.36 2153.67 1108.65L2159.91 1096.23C2159.25 1095.35 2158.34 1094.91 2157.18 1094.91C2155.89 1094.91 2154.88 1095.6 2154.14 1096.99C2153.41 1098.35 2153.05 1100.46 2153.05 1103.3ZM2157.18 1111.68C2158.49 1111.68 2159.52 1111 2160.25 1109.64C2160.98 1108.25 2161.34 1106.14 2161.34 1103.3C2161.34 1100.89 2161.11 1099.02 2160.64 1097.69L2154.4 1110.22C2155.07 1111.2 2156 1111.68 2157.18 1111.68Z" fill="url(#paint92_linear_301_3036)"/>
<path d="M2157.18 1125.45C2159.19 1125.45 2160.71 1126.3 2161.74 1128C2162.79 1129.68 2163.31 1132.13 2163.31 1135.35C2163.31 1138.57 2162.79 1141.02 2161.74 1142.73C2160.71 1144.43 2159.19 1145.28 2157.18 1145.28C2155.19 1145.28 2153.68 1144.43 2152.63 1142.73C2151.58 1141.02 2151.05 1138.57 2151.05 1135.35C2151.05 1132.15 2151.58 1129.7 2152.63 1128C2153.68 1126.3 2155.19 1125.45 2157.18 1125.45ZM2153.05 1135.35C2153.05 1137.63 2153.25 1139.42 2153.67 1140.71L2159.91 1128.28C2159.25 1127.4 2158.34 1126.96 2157.18 1126.96C2155.89 1126.96 2154.88 1127.66 2154.14 1129.04C2153.41 1130.4 2153.05 1132.51 2153.05 1135.35ZM2157.18 1143.74C2158.49 1143.74 2159.52 1143.05 2160.25 1141.69C2160.98 1140.3 2161.34 1138.19 2161.34 1135.35C2161.34 1132.94 2161.11 1131.07 2160.64 1129.74L2154.4 1142.28C2155.07 1143.25 2156 1143.74 2157.18 1143.74Z" fill="url(#paint93_linear_301_3036)"/>
</g>
<defs>
<filter id="filter0_f_301_3036" x="0.232788" y="0.232788" width="3011.32" height="2109.91" filterUnits="userSpaceOnUse" color-interpolation-filters="sRGB">
<feFlood flood-opacity="0" result="BackgroundImageFix"/>
<feBlend mode="normal" in="SourceGraphic" in2="BackgroundImageFix" result="shape"/>
<feGaussianBlur stdDeviation="281.384" result="effect1_foregroundBlur_301_3036"/>
</filter>
<linearGradient id="paint0_linear_301_3036" x1="859.016" y1="1387.06" x2="859.016" y2="1824.94" gradientUnits="userSpaceOnUse">
<stop stop-color="#F7DD43"/>
<stop offset="1" stop-color="#F7DD43" stop-opacity="0"/>
</linearGradient>
<linearGradient id="paint1_linear_301_3036" x1="859.016" y1="1387.06" x2="859.016" y2="1824.94" gradientUnits="userSpaceOnUse">
<stop stop-color="#F7DD43"/>
<stop offset="1" stop-color="#F7DD43" stop-opacity="0"/>
</linearGradient>
<linearGradient id="paint2_linear_301_3036" x1="859.016" y1="1387.06" x2="859.016" y2="1824.94" gradientUnits="userSpaceOnUse">
<stop stop-color="#F7DD43"/>
<stop offset="1" stop-color="#F7DD43" stop-opacity="0"/>
</linearGradient>
<linearGradient id="paint3_linear_301_3036" x1="859.016" y1="1387.06" x2="859.016" y2="1824.94" gradientUnits="userSpaceOnUse">
<stop stop-color="#F7DD43"/>
<stop offset="1" stop-color="#F7DD43" stop-opacity="0"/>
</linearGradient>
<linearGradient id="paint4_linear_301_3036" x1="859.016" y1="1387.06" x2="859.016" y2="1824.94" gradientUnits="userSpaceOnUse">
<stop stop-color="#F7DD43"/>
<stop offset="1" stop-color="#F7DD43" stop-opacity="0"/>
</linearGradient>
<linearGradient id="paint5_linear_301_3036" x1="859.016" y1="1387.06" x2="859.016" y2="1824.94" gradientUnits="userSpaceOnUse">
<stop stop-color="#F7DD43"/>
<stop offset="1" stop-color="#F7DD43" stop-opacity="0"/>
</linearGradient>
<linearGradient id="paint6_linear_301_3036" x1="859.016" y1="1387.06" x2="859.016" y2="1824.94" gradientUnits="userSpaceOnUse">
<stop stop-color="#F7DD43"/>
<stop offset="1" stop-color="#F7DD43" stop-opacity="0"/>
</linearGradient>
<linearGradient id="paint7_linear_301_3036" x1="859.016" y1="1387.06" x2="859.016" y2="1824.94" gradientUnits="userSpaceOnUse">
<stop stop-color="#F7DD43"/>
<stop offset="1" stop-color="#F7DD43" stop-opacity="0"/>
</linearGradient>
<linearGradient id="paint8_linear_301_3036" x1="859.016" y1="1387.06" x2="859.016" y2="1824.94" gradientUnits="userSpaceOnUse">
<stop stop-color="#F7DD43"/>
<stop offset="1" stop-color="#F7DD43" stop-opacity="0"/>
</linearGradient>
<linearGradient id="paint9_linear_301_3036" x1="859.016" y1="1387.06" x2="859.016" y2="1824.94" gradientUnits="userSpaceOnUse">
<stop stop-color="#F7DD43"/>
<stop offset="1" stop-color="#F7DD43" stop-opacity="0"/>
</linearGradient>
<linearGradient id="paint10_linear_301_3036" x1="859.016" y1="1387.06" x2="859.016" y2="1824.94" gradientUnits="userSpaceOnUse">
<stop stop-color="#F7DD43"/>
<stop offset="1" stop-color="#F7DD43" stop-opacity="0"/>
</linearGradient>
<linearGradient id="paint11_linear_301_3036" x1="859.016" y1="1387.06" x2="859.016" y2="1824.94" gradientUnits="userSpaceOnUse">
<stop stop-color="#F7DD43"/>
<stop offset="1" stop-color="#F7DD43" stop-opacity="0"/>
</linearGradient>
<linearGradient id="paint12_linear_301_3036" x1="859.016" y1="1387.06" x2="859.016" y2="1824.94" gradientUnits="userSpaceOnUse">
<stop stop-color="#F7DD43"/>
<stop offset="1" stop-color="#F7DD43" stop-opacity="0"/>
</linearGradient>
<linearGradient id="paint13_linear_301_3036" x1="859.016" y1="1387.06" x2="859.016" y2="1824.94" gradientUnits="userSpaceOnUse">
<stop stop-color="#F7DD43"/>
<stop offset="1" stop-color="#F7DD43" stop-opacity="0"/>
</linearGradient>
<linearGradient id="paint14_linear_301_3036" x1="859.016" y1="1387.06" x2="859.016" y2="1824.94" gradientUnits="userSpaceOnUse">
<stop stop-color="#F7DD43"/>
<stop offset="1" stop-color="#F7DD43" stop-opacity="0"/>
</linearGradient>
<linearGradient id="paint15_linear_301_3036" x1="859.016" y1="1387.06" x2="859.016" y2="1824.94" gradientUnits="userSpaceOnUse">
<stop stop-color="#F7DD43"/>
<stop offset="1" stop-color="#F7DD43" stop-opacity="0"/>
</linearGradient>
<linearGradient id="paint16_linear_301_3036" x1="859.016" y1="1387.06" x2="859.016" y2="1824.94" gradientUnits="userSpaceOnUse">
<stop stop-color="#F7DD43"/>
<stop offset="1" stop-color="#F7DD43" stop-opacity="0"/>
</linearGradient>
<linearGradient id="paint17_linear_301_3036" x1="859.016" y1="1387.06" x2="859.016" y2="1824.94" gradientUnits="userSpaceOnUse">
<stop stop-color="#F7DD43"/>
<stop offset="1" stop-color="#F7DD43" stop-opacity="0"/>
</linearGradient>
<linearGradient id="paint18_linear_301_3036" x1="859.016" y1="1387.06" x2="859.016" y2="1824.94" gradientUnits="userSpaceOnUse">
<stop stop-color="#F7DD43"/>
<stop offset="1" stop-color="#F7DD43" stop-opacity="0"/>
</linearGradient>
<linearGradient id="paint19_linear_301_3036" x1="859.016" y1="1387.06" x2="859.016" y2="1824.94" gradientUnits="userSpaceOnUse">
<stop stop-color="#F7DD43"/>
<stop offset="1" stop-color="#F7DD43" stop-opacity="0"/>
</linearGradient>
<linearGradient id="paint20_linear_301_3036" x1="859.016" y1="1387.06" x2="859.016" y2="1824.94" gradientUnits="userSpaceOnUse">
<stop stop-color="#F7DD43"/>
<stop offset="1" stop-color="#F7DD43" stop-opacity="0"/>
</linearGradient>
<linearGradient id="paint21_linear_301_3036" x1="859.016" y1="1387.06" x2="859.016" y2="1824.94" gradientUnits="userSpaceOnUse">
<stop stop-color="#F7DD43"/>
<stop offset="1" stop-color="#F7DD43" stop-opacity="0"/>
</linearGradient>
<linearGradient id="paint22_linear_301_3036" x1="859.016" y1="1387.06" x2="859.016" y2="1824.94" gradientUnits="userSpaceOnUse">
<stop stop-color="#F7DD43"/>
<stop offset="1" stop-color="#F7DD43" stop-opacity="0"/>
</linearGradient>
<linearGradient id="paint23_linear_301_3036" x1="859.016" y1="1387.06" x2="859.016" y2="1824.94" gradientUnits="userSpaceOnUse">
<stop stop-color="#F7DD43"/>
<stop offset="1" stop-color="#F7DD43" stop-opacity="0"/>
</linearGradient>
<linearGradient id="paint24_linear_301_3036" x1="859.016" y1="1387.06" x2="859.016" y2="1824.94" gradientUnits="userSpaceOnUse">
<stop stop-color="#F7DD43"/>
<stop offset="1" stop-color="#F7DD43" stop-opacity="0"/>
</linearGradient>
<linearGradient id="paint25_linear_301_3036" x1="859.016" y1="1387.06" x2="859.016" y2="1824.94" gradientUnits="userSpaceOnUse">
<stop stop-color="#F7DD43"/>
<stop offset="1" stop-color="#F7DD43" stop-opacity="0"/>
</linearGradient>
<linearGradient id="paint26_linear_301_3036" x1="859.016" y1="1387.06" x2="859.016" y2="1824.94" gradientUnits="userSpaceOnUse">
<stop stop-color="#F7DD43"/>
<stop offset="1" stop-color="#F7DD43" stop-opacity="0"/>
</linearGradient>
<linearGradient id="paint27_linear_301_3036" x1="859.016" y1="1387.06" x2="859.016" y2="1824.94" gradientUnits="userSpaceOnUse">
<stop stop-color="#F7DD43"/>
<stop offset="1" stop-color="#F7DD43" stop-opacity="0"/>
</linearGradient>
<linearGradient id="paint28_linear_301_3036" x1="859.016" y1="1387.06" x2="859.016" y2="1824.94" gradientUnits="userSpaceOnUse">
<stop stop-color="#F7DD43"/>
<stop offset="1" stop-color="#F7DD43" stop-opacity="0"/>
</linearGradient>
<linearGradient id="paint29_linear_301_3036" x1="859.016" y1="1387.06" x2="859.016" y2="1824.94" gradientUnits="userSpaceOnUse">
<stop stop-color="#F7DD43"/>
<stop offset="1" stop-color="#F7DD43" stop-opacity="0"/>
</linearGradient>
<linearGradient id="paint30_linear_301_3036" x1="859.016" y1="1387.06" x2="859.016" y2="1824.94" gradientUnits="userSpaceOnUse">
<stop stop-color="#F7DD43"/>
<stop offset="1" stop-color="#F7DD43" stop-opacity="0"/>
</linearGradient>
<linearGradient id="paint31_linear_301_3036" x1="859.016" y1="1387.06" x2="859.016" y2="1824.94" gradientUnits="userSpaceOnUse">
<stop stop-color="#F7DD43"/>
<stop offset="1" stop-color="#F7DD43" stop-opacity="0"/>
</linearGradient>
<linearGradient id="paint32_linear_301_3036" x1="859.016" y1="1387.06" x2="859.016" y2="1824.94" gradientUnits="userSpaceOnUse">
<stop stop-color="#F7DD43"/>
<stop offset="1" stop-color="#F7DD43" stop-opacity="0"/>
</linearGradient>
<linearGradient id="paint33_linear_301_3036" x1="859.016" y1="1387.06" x2="859.016" y2="1824.94" gradientUnits="userSpaceOnUse">
<stop stop-color="#F7DD43"/>
<stop offset="1" stop-color="#F7DD43" stop-opacity="0"/>
</linearGradient>
<linearGradient id="paint34_linear_301_3036" x1="859.016" y1="1387.06" x2="859.016" y2="1824.94" gradientUnits="userSpaceOnUse">
<stop stop-color="#F7DD43"/>
<stop offset="1" stop-color="#F7DD43" stop-opacity="0"/>
</linearGradient>
<linearGradient id="paint35_linear_301_3036" x1="859.016" y1="1387.06" x2="859.016" y2="1824.94" gradientUnits="userSpaceOnUse">
<stop stop-color="#F7DD43"/>
<stop offset="1" stop-color="#F7DD43" stop-opacity="0"/>
</linearGradient>
<linearGradient id="paint36_linear_301_3036" x1="859.016" y1="1387.06" x2="859.016" y2="1824.94" gradientUnits="userSpaceOnUse">
<stop stop-color="#F7DD43"/>
<stop offset="1" stop-color="#F7DD43" stop-opacity="0"/>
</linearGradient>
<linearGradient id="paint37_linear_301_3036" x1="859.016" y1="1387.06" x2="859.016" y2="1824.94" gradientUnits="userSpaceOnUse">
<stop stop-color="#F7DD43"/>
<stop offset="1" stop-color="#F7DD43" stop-opacity="0"/>
</linearGradient>
<linearGradient id="paint38_linear_301_3036" x1="859.016" y1="1387.06" x2="859.016" y2="1824.94" gradientUnits="userSpaceOnUse">
<stop stop-color="#F7DD43"/>
<stop offset="1" stop-color="#F7DD43" stop-opacity="0"/>
</linearGradient>
<linearGradient id="paint39_linear_301_3036" x1="859.016" y1="1387.06" x2="859.016" y2="1824.94" gradientUnits="userSpaceOnUse">
<stop stop-color="#F7DD43"/>
<stop offset="1" stop-color="#F7DD43" stop-opacity="0"/>
</linearGradient>
<linearGradient id="paint40_linear_301_3036" x1="859.016" y1="1387.06" x2="859.016" y2="1824.94" gradientUnits="userSpaceOnUse">
<stop stop-color="#F7DD43"/>
<stop offset="1" stop-color="#F7DD43" stop-opacity="0"/>
</linearGradient>
<linearGradient id="paint41_linear_301_3036" x1="859.016" y1="1387.06" x2="859.016" y2="1824.94" gradientUnits="userSpaceOnUse">
<stop stop-color="#F7DD43"/>
<stop offset="1" stop-color="#F7DD43" stop-opacity="0"/>
</linearGradient>
<linearGradient id="paint42_linear_301_3036" x1="859.016" y1="1387.06" x2="859.016" y2="1824.94" gradientUnits="userSpaceOnUse">
<stop stop-color="#F7DD43"/>
<stop offset="1" stop-color="#F7DD43" stop-opacity="0"/>
</linearGradient>
<linearGradient id="paint43_linear_301_3036" x1="859.016" y1="1387.06" x2="859.016" y2="1824.94" gradientUnits="userSpaceOnUse">
<stop stop-color="#F7DD43"/>
<stop offset="1" stop-color="#F7DD43" stop-opacity="0"/>
</linearGradient>
<linearGradient id="paint44_linear_301_3036" x1="859.016" y1="1387.06" x2="859.016" y2="1824.94" gradientUnits="userSpaceOnUse">
<stop stop-color="#F7DD43"/>
<stop offset="1" stop-color="#F7DD43" stop-opacity="0"/>
</linearGradient>
<linearGradient id="paint45_linear_301_3036" x1="859.016" y1="1387.06" x2="859.016" y2="1824.94" gradientUnits="userSpaceOnUse">
<stop stop-color="#F7DD43"/>
<stop offset="1" stop-color="#F7DD43" stop-opacity="0"/>
</linearGradient>
<linearGradient id="paint46_linear_301_3036" x1="859.016" y1="1387.06" x2="859.016" y2="1824.94" gradientUnits="userSpaceOnUse">
<stop stop-color="#F7DD43"/>
<stop offset="1" stop-color="#F7DD43" stop-opacity="0"/>
</linearGradient>
<linearGradient id="paint47_linear_301_3036" x1="2104.95" y1="965.188" x2="2104.95" y2="1385.4" gradientUnits="userSpaceOnUse">
<stop stop-color="#F7DD43"/>
<stop offset="1" stop-color="#F7DD43" stop-opacity="0"/>
</linearGradient>
<linearGradient id="paint48_linear_301_3036" x1="2104.95" y1="965.188" x2="2104.95" y2="1385.4" gradientUnits="userSpaceOnUse">
<stop stop-color="#F7DD43"/>
<stop offset="1" stop-color="#F7DD43" stop-opacity="0"/>
</linearGradient>
<linearGradient id="paint49_linear_301_3036" x1="2104.95" y1="965.188" x2="2104.95" y2="1385.4" gradientUnits="userSpaceOnUse">
<stop stop-color="#F7DD43"/>
<stop offset="1" stop-color="#F7DD43" stop-opacity="0"/>
</linearGradient>
<linearGradient id="paint50_linear_301_3036" x1="2104.95" y1="965.188" x2="2104.95" y2="1385.4" gradientUnits="userSpaceOnUse">
<stop stop-color="#F7DD43"/>
<stop offset="1" stop-color="#F7DD43" stop-opacity="0"/>
</linearGradient>
<linearGradient id="paint51_linear_301_3036" x1="2104.95" y1="965.188" x2="2104.95" y2="1385.4" gradientUnits="userSpaceOnUse">
<stop stop-color="#F7DD43"/>
<stop offset="1" stop-color="#F7DD43" stop-opacity="0"/>
</linearGradient>
<linearGradient id="paint52_linear_301_3036" x1="2104.95" y1="965.188" x2="2104.95" y2="1385.4" gradientUnits="userSpaceOnUse">
<stop stop-color="#F7DD43"/>
<stop offset="1" stop-color="#F7DD43" stop-opacity="0"/>
</linearGradient>
<linearGradient id="paint53_linear_301_3036" x1="2104.95" y1="965.188" x2="2104.95" y2="1385.4" gradientUnits="userSpaceOnUse">
<stop stop-color="#F7DD43"/>
<stop offset="1" stop-color="#F7DD43" stop-opacity="0"/>
</linearGradient>
<linearGradient id="paint54_linear_301_3036" x1="2104.95" y1="965.188" x2="2104.95" y2="1385.4" gradientUnits="userSpaceOnUse">
<stop stop-color="#F7DD43"/>
<stop offset="1" stop-color="#F7DD43" stop-opacity="0"/>
</linearGradient>
<linearGradient id="paint55_linear_301_3036" x1="2104.95" y1="965.188" x2="2104.95" y2="1385.4" gradientUnits="userSpaceOnUse">
<stop stop-color="#F7DD43"/>
<stop offset="1" stop-color="#F7DD43" stop-opacity="0"/>
</linearGradient>
<linearGradient id="paint56_linear_301_3036" x1="2104.95" y1="965.188" x2="2104.95" y2="1385.4" gradientUnits="userSpaceOnUse">
<stop stop-color="#F7DD43"/>
<stop offset="1" stop-color="#F7DD43" stop-opacity="0"/>
</linearGradient>
<linearGradient id="paint57_linear_301_3036" x1="2104.95" y1="965.188" x2="2104.95" y2="1385.4" gradientUnits="userSpaceOnUse">
<stop stop-color="#F7DD43"/>
<stop offset="1" stop-color="#F7DD43" stop-opacity="0"/>
</linearGradient>
<linearGradient id="paint58_linear_301_3036" x1="2104.95" y1="965.188" x2="2104.95" y2="1385.4" gradientUnits="userSpaceOnUse">
<stop stop-color="#F7DD43"/>
<stop offset="1" stop-color="#F7DD43" stop-opacity="0"/>
</linearGradient>
<linearGradient id="paint59_linear_301_3036" x1="2104.95" y1="965.188" x2="2104.95" y2="1385.4" gradientUnits="userSpaceOnUse">
<stop stop-color="#F7DD43"/>
<stop offset="1" stop-color="#F7DD43" stop-opacity="0"/>
</linearGradient>
<linearGradient id="paint60_linear_301_3036" x1="2104.95" y1="965.188" x2="2104.95" y2="1385.4" gradientUnits="userSpaceOnUse">
<stop stop-color="#F7DD43"/>
<stop offset="1" stop-color="#F7DD43" stop-opacity="0"/>
</linearGradient>
<linearGradient id="paint61_linear_301_3036" x1="2104.95" y1="965.188" x2="2104.95" y2="1385.4" gradientUnits="userSpaceOnUse">
<stop stop-color="#F7DD43"/>
<stop offset="1" stop-color="#F7DD43" stop-opacity="0"/>
</linearGradient>
<linearGradient id="paint62_linear_301_3036" x1="2104.95" y1="965.188" x2="2104.95" y2="1385.4" gradientUnits="userSpaceOnUse">
<stop stop-color="#F7DD43"/>
<stop offset="1" stop-color="#F7DD43" stop-opacity="0"/>
</linearGradient>
<linearGradient id="paint63_linear_301_3036" x1="2104.95" y1="965.188" x2="2104.95" y2="1385.4" gradientUnits="userSpaceOnUse">
<stop stop-color="#F7DD43"/>
<stop offset="1" stop-color="#F7DD43" stop-opacity="0"/>
</linearGradient>
<linearGradient id="paint64_linear_301_3036" x1="2104.95" y1="965.188" x2="2104.95" y2="1385.4" gradientUnits="userSpaceOnUse">
<stop stop-color="#F7DD43"/>
<stop offset="1" stop-color="#F7DD43" stop-opacity="0"/>
</linearGradient>
<linearGradient id="paint65_linear_301_3036" x1="2104.95" y1="965.188" x2="2104.95" y2="1385.4" gradientUnits="userSpaceOnUse">
<stop stop-color="#F7DD43"/>
<stop offset="1" stop-color="#F7DD43" stop-opacity="0"/>
</linearGradient>
<linearGradient id="paint66_linear_301_3036" x1="2104.95" y1="965.188" x2="2104.95" y2="1385.4" gradientUnits="userSpaceOnUse">
<stop stop-color="#F7DD43"/>
<stop offset="1" stop-color="#F7DD43" stop-opacity="0"/>
</linearGradient>
<linearGradient id="paint67_linear_301_3036" x1="2104.95" y1="965.188" x2="2104.95" y2="1385.4" gradientUnits="userSpaceOnUse">
<stop stop-color="#F7DD43"/>
<stop offset="1" stop-color="#F7DD43" stop-opacity="0"/>
</linearGradient>
<linearGradient id="paint68_linear_301_3036" x1="2104.95" y1="965.188" x2="2104.95" y2="1385.4" gradientUnits="userSpaceOnUse">
<stop stop-color="#F7DD43"/>
<stop offset="1" stop-color="#F7DD43" stop-opacity="0"/>
</linearGradient>
<linearGradient id="paint69_linear_301_3036" x1="2104.95" y1="965.188" x2="2104.95" y2="1385.4" gradientUnits="userSpaceOnUse">
<stop stop-color="#F7DD43"/>
<stop offset="1" stop-color="#F7DD43" stop-opacity="0"/>
</linearGradient>
<linearGradient id="paint70_linear_301_3036" x1="2104.95" y1="965.188" x2="2104.95" y2="1385.4" gradientUnits="userSpaceOnUse">
<stop stop-color="#F7DD43"/>
<stop offset="1" stop-color="#F7DD43" stop-opacity="0"/>
</linearGradient>
<linearGradient id="paint71_linear_301_3036" x1="2104.95" y1="965.188" x2="2104.95" y2="1385.4" gradientUnits="userSpaceOnUse">
<stop stop-color="#F7DD43"/>
<stop offset="1" stop-color="#F7DD43" stop-opacity="0"/>
</linearGradient>
<linearGradient id="paint72_linear_301_3036" x1="2104.95" y1="965.188" x2="2104.95" y2="1385.4" gradientUnits="userSpaceOnUse">
<stop stop-color="#F7DD43"/>
<stop offset="1" stop-color="#F7DD43" stop-opacity="0"/>
</linearGradient>
<linearGradient id="paint73_linear_301_3036" x1="2104.95" y1="965.188" x2="2104.95" y2="1385.4" gradientUnits="userSpaceOnUse">
<stop stop-color="#F7DD43"/>
<stop offset="1" stop-color="#F7DD43" stop-opacity="0"/>
</linearGradient>
<linearGradient id="paint74_linear_301_3036" x1="2104.95" y1="965.188" x2="2104.95" y2="1385.4" gradientUnits="userSpaceOnUse">
<stop stop-color="#F7DD43"/>
<stop offset="1" stop-color="#F7DD43" stop-opacity="0"/>
</linearGradient>
<linearGradient id="paint75_linear_301_3036" x1="2104.95" y1="965.188" x2="2104.95" y2="1385.4" gradientUnits="userSpaceOnUse">
<stop stop-color="#F7DD43"/>
<stop offset="1" stop-color="#F7DD43" stop-opacity="0"/>
</linearGradient>
<linearGradient id="paint76_linear_301_3036" x1="2104.95" y1="965.188" x2="2104.95" y2="1385.4" gradientUnits="userSpaceOnUse">
<stop stop-color="#F7DD43"/>
<stop offset="1" stop-color="#F7DD43" stop-opacity="0"/>
</linearGradient>
<linearGradient id="paint77_linear_301_3036" x1="2104.95" y1="965.188" x2="2104.95" y2="1385.4" gradientUnits="userSpaceOnUse">
<stop stop-color="#F7DD43"/>
<stop offset="1" stop-color="#F7DD43" stop-opacity="0"/>
</linearGradient>
<linearGradient id="paint78_linear_301_3036" x1="2104.95" y1="965.188" x2="2104.95" y2="1385.4" gradientUnits="userSpaceOnUse">
<stop stop-color="#F7DD43"/>
<stop offset="1" stop-color="#F7DD43" stop-opacity="0"/>
</linearGradient>
<linearGradient id="paint79_linear_301_3036" x1="2104.95" y1="965.188" x2="2104.95" y2="1385.4" gradientUnits="userSpaceOnUse">
<stop stop-color="#F7DD43"/>
<stop offset="1" stop-color="#F7DD43" stop-opacity="0"/>
</linearGradient>
<linearGradient id="paint80_linear_301_3036" x1="2104.95" y1="965.188" x2="2104.95" y2="1385.4" gradientUnits="userSpaceOnUse">
<stop stop-color="#F7DD43"/>
<stop offset="1" stop-color="#F7DD43" stop-opacity="0"/>
</linearGradient>
<linearGradient id="paint81_linear_301_3036" x1="2104.95" y1="965.188" x2="2104.95" y2="1385.4" gradientUnits="userSpaceOnUse">
<stop stop-color="#F7DD43"/>
<stop offset="1" stop-color="#F7DD43" stop-opacity="0"/>
</linearGradient>
<linearGradient id="paint82_linear_301_3036" x1="2104.95" y1="965.188" x2="2104.95" y2="1385.4" gradientUnits="userSpaceOnUse">
<stop stop-color="#F7DD43"/>
<stop offset="1" stop-color="#F7DD43" stop-opacity="0"/>
</linearGradient>
<linearGradient id="paint83_linear_301_3036" x1="2104.95" y1="965.188" x2="2104.95" y2="1385.4" gradientUnits="userSpaceOnUse">
<stop stop-color="#F7DD43"/>
<stop offset="1" stop-color="#F7DD43" stop-opacity="0"/>
</linearGradient>
<linearGradient id="paint84_linear_301_3036" x1="2104.95" y1="965.188" x2="2104.95" y2="1385.4" gradientUnits="userSpaceOnUse">
<stop stop-color="#F7DD43"/>
<stop offset="1" stop-color="#F7DD43" stop-opacity="0"/>
</linearGradient>
<linearGradient id="paint85_linear_301_3036" x1="2104.95" y1="965.188" x2="2104.95" y2="1385.4" gradientUnits="userSpaceOnUse">
<stop stop-color="#F7DD43"/>
<stop offset="1" stop-color="#F7DD43" stop-opacity="0"/>
</linearGradient>
<linearGradient id="paint86_linear_301_3036" x1="2104.95" y1="965.188" x2="2104.95" y2="1385.4" gradientUnits="userSpaceOnUse">
<stop stop-color="#F7DD43"/>
<stop offset="1" stop-color="#F7DD43" stop-opacity="0"/>
</linearGradient>
<linearGradient id="paint87_linear_301_3036" x1="2104.95" y1="965.188" x2="2104.95" y2="1385.4" gradientUnits="userSpaceOnUse">
<stop stop-color="#F7DD43"/>
<stop offset="1" stop-color="#F7DD43" stop-opacity="0"/>
</linearGradient>
<linearGradient id="paint88_linear_301_3036" x1="2104.95" y1="965.188" x2="2104.95" y2="1385.4" gradientUnits="userSpaceOnUse">
<stop stop-color="#F7DD43"/>
<stop offset="1" stop-color="#F7DD43" stop-opacity="0"/>
</linearGradient>
<linearGradient id="paint89_linear_301_3036" x1="2104.95" y1="965.188" x2="2104.95" y2="1385.4" gradientUnits="userSpaceOnUse">
<stop stop-color="#F7DD43"/>
<stop offset="1" stop-color="#F7DD43" stop-opacity="0"/>
</linearGradient>
<linearGradient id="paint90_linear_301_3036" x1="2104.95" y1="965.188" x2="2104.95" y2="1385.4" gradientUnits="userSpaceOnUse">
<stop stop-color="#F7DD43"/>
<stop offset="1" stop-color="#F7DD43" stop-opacity="0"/>
</linearGradient>
<linearGradient id="paint91_linear_301_3036" x1="2104.95" y1="965.188" x2="2104.95" y2="1385.4" gradientUnits="userSpaceOnUse">
<stop stop-color="#F7DD43"/>
<stop offset="1" stop-color="#F7DD43" stop-opacity="0"/>
</linearGradient>
<linearGradient id="paint92_linear_301_3036" x1="2104.95" y1="965.188" x2="2104.95" y2="1385.4" gradientUnits="userSpaceOnUse">
<stop stop-color="#F7DD43"/>
<stop offset="1" stop-color="#F7DD43" stop-opacity="0"/>
</linearGradient>
<linearGradient id="paint93_linear_301_3036" x1="2104.95" y1="965.188" x2="2104.95" y2="1385.4" gradientUnits="userSpaceOnUse">
<stop stop-color="#F7DD43"/>
<stop offset="1" stop-color="#F7DD43" stop-opacity="0"/>
</linearGradient>
</defs>
</svg>
